<svg xmlns="http://www.w3.org/2000/svg" width="22" height="22" viewBox="0 0 24 24" fill="currentColor" aria-hidden="true" focusable="false" role="img">
  <path fill-rule="evenodd" clip-rule="evenodd" d="M12 .5C5.73.5.98 5.24.98 11.5c0 4.85 3.16 8.96 7.55 10.41.55.1.75-.24.75-.53 0-.26-.01-1.12-.02-2.03-3.07.67-3.72-1.3-3.72-1.3-.5-1.28-1.22-1.62-1.22-1.62-1-.68.08-.67.08-.67 1.1.08 1.67 1.14 1.67 1.14.98 1.67 2.57 1.19 3.2.9.1-.71.38-1.19.69-1.46-2.45-.28-5.02-1.22-5.02-5.43 0-1.2.43-2.17 1.14-2.94-.11-.28-.49-1.42.11-2.96 0 0 .93-.3 3.06 1.12.89-.25 1.85-.38 2.81-.39.95.01 1.92.14 2.81.39 2.13-1.42 3.06-1.12 3.06-1.12.6 1.54.22 2.68.11 2.96.71.77 1.14 1.74 1.14 2.94 0 4.22-2.58 5.14-5.04 5.42.39.34.74 1.01.74 2.05 0 1.48-.01 2.68-.01 3.04 0 .29.2.63.76.52A10.53 10.53 0 0 0 23.02 11.5C23.02 5.24 18.27.5 12 .5z"/>
</svg>
